<?xml version="1.0" encoding="UTF-8"?>
<svg version="1.1" xmlns="http://www.w3.org/2000/svg" width="1920" height="1920">
<path d="M0 0 C633.6 0 1267.2 0 1920 0 C1920 633.6 1920 1267.2 1920 1920 C1286.4 1920 652.8 1920 0 1920 C0 1286.4 0 652.8 0 0 Z " fill="#020202" transform="translate(0,0)"/>
<path d="M0 0 C44.22 0 88.44 0 134 0 C142.45833333 16.91666667 142.45833333 16.91666667 145.6484375 24.078125 C147.70542452 28.52502179 149.92322182 32.89010288 152.14648438 37.25585938 C154.26701544 41.44233358 156.15236383 45.68396102 158 50 C159.72851939 53.48453795 161.50285125 56.94304619 163.28125 60.40234375 C164.49587232 62.94476911 165.53344986 65.34543614 166.48828125 67.9765625 C167.93825816 71.96088437 169.74414687 75.67393691 171.6875 79.4375 C174.55749526 85.08164653 177.32803836 90.75947288 180 96.5 C182.62327119 102.12847211 185.32683819 107.70639634 188.125 113.25 C190.99465919 118.94044676 193.73378228 124.67345493 196.37890625 130.47265625 C198.343799 134.7480735 200.35678462 138.99955485 202.375 143.25 C206.6030271 152.1574514 210.80661179 161.07619565 215 170 C217.0997304 166.61095474 218.91155181 163.20439317 220.57421875 159.58203125 C221.06841309 158.51049805 221.56260742 157.43896484 222.07177734 156.33496094 C222.60496582 155.17254883 223.1381543 154.01013672 223.6875 152.8125 C224.8589701 150.27134609 226.0329101 147.73133617 227.20703125 145.19140625 C227.51374756 144.52736786 227.82046387 143.86332947 228.13647461 143.1791687 C231.67838461 135.51842589 235.27587243 127.88398328 238.875 120.25 C240.22934042 117.37638394 241.58348323 114.50267482 242.9375 111.62890625 C243.27347702 110.91589355 243.60945404 110.20288086 243.95561218 109.46826172 C247.28809694 102.39341254 250.60421961 95.31093002 253.91973877 88.2281189 C258.81318595 77.774789 263.72991139 67.33341813 268.703125 56.91772461 C275.00607549 43.74856034 275.00607549 43.74856034 281 30.4375 C283.74698267 24.17245181 286.91817534 18.10438345 290 12 C297.26 12 304.52 12 312 12 C310.06675746 18.44414179 308.40889091 23.73891382 305.35546875 29.515625 C304.64158061 30.90517042 303.92855847 32.29516101 303.21630859 33.68554688 C302.85035583 34.39477295 302.48440308 35.10399902 302.10736084 35.8347168 C300.27148892 39.42449755 298.50500878 43.0476914 296.73828125 46.671875 C296.20135399 47.77132698 296.20135399 47.77132698 295.65357971 48.89299011 C294.53849807 51.17798636 293.4252424 53.46386377 292.3125 55.75 C291.9255899 56.54427399 291.53867981 57.33854797 291.14004517 58.15689087 C285.34589989 70.06044737 279.66798818 82.01083097 274.14770508 94.04394531 C271.56330486 99.67360796 268.89532257 105.24045692 266.10009766 110.76831055 C264.60622593 113.79882129 263.30734405 116.88447023 262 120 C260.94771644 122.29637577 259.88474765 124.58787794 258.8125 126.875 C258.51206787 127.51646973 258.21163574 128.15793945 257.90209961 128.81884766 C256.93617713 130.879913 255.96835627 132.94007711 255 135 C254.67837891 135.68449219 254.35675781 136.36898437 254.02539062 137.07421875 C252.364079 140.60906544 250.70063146 144.14289445 249.03515625 147.67578125 C247.68292585 150.54546426 246.33697549 153.41796632 244.99609375 156.29296875 C241.37285634 164.04933478 237.67744554 171.75741691 233.7890625 179.38500977 C231.74401427 183.41871704 229.86842349 187.50402185 228.04882812 191.64404297 C226.22830835 195.73343213 224.29817197 199.77063358 222.375 203.8125 C221.98054687 204.64458984 221.58609375 205.47667969 221.1796875 206.33398438 C219.48401436 209.90578236 217.77762341 213.46810374 216 217 C212.84717354 214.36791064 211.44439562 211.04392541 209.8125 207.375 C209.1944804 206.01801502 208.57597203 204.66125256 207.95703125 203.3046875 C207.63686035 202.59795898 207.31668945 201.89123047 206.98681641 201.16308594 C205.35808143 197.59292465 203.67724283 194.04756126 202 190.5 C199.56722165 185.34068258 197.15070897 180.17434361 194.75 175 C191.45611197 167.93949 188.10970446 160.90441162 184.75 153.875 C184.23018555 152.78316406 183.71037109 151.69132813 183.17480469 150.56640625 C182.43085449 149.01373047 182.43085449 149.01373047 181.671875 147.4296875 C181.2294043 146.50397949 180.78693359 145.57827148 180.33105469 144.62451172 C179.00106039 142.00209084 177.52069571 139.51521205 176 137 C175.36129394 135.47231939 174.75691392 133.92983802 174.1875 132.375 C172.36628461 127.67193805 170.09803007 123.3857473 167.5625 119.03125 C166.2881536 116.55901798 165.2668648 114.19157471 164.26953125 111.60546875 C161.47991746 104.48645909 158.0504922 97.67247147 154.6875 90.8125 C153.39795623 88.17404479 152.11066733 85.53449678 150.82421875 82.89453125 C150.5068576 82.24461212 150.18949646 81.59469299 149.86251831 80.92507935 C147.03943124 75.12550685 144.33259397 69.27538029 141.65161133 63.40893555 C140.47353704 60.97738325 139.2715963 58.68815442 137.91577148 56.36254883 C136.37291467 53.65453725 135.15663432 51.15608784 134.078125 48.25 C131.54390412 41.70367601 128.4376734 35.45593794 125.359375 29.15234375 C124.92625 28.25644531 124.493125 27.36054687 124.046875 26.4375 C123.65338867 25.63183594 123.25990234 24.82617188 122.85449219 23.99609375 C122 22 122 22 122 20 C91.97 20 61.94 20 31 20 C36.61 31.55 42.22 43.1 48 55 C48.99 57.31 49.98 59.62 51 62 C52.14991072 64.34163637 53.31675595 66.67502923 54.5 69 C56.84538122 73.60846836 58.96540348 78.24754694 61 83 C62.51475853 86.24210211 64.07177971 89.46368231 65.625 92.6875 C69.4131159 100.58578425 73.08939906 108.52361556 76.60400391 116.54760742 C79.16907667 122.34130702 81.97271835 127.99903745 84.81962585 133.65759277 C88.59948847 141.17356972 92.27342202 148.7395622 95.9375 156.3125 C96.28283783 157.02557312 96.62817566 157.73864624 96.98397827 158.47332764 C101.11867227 167.01183279 105.24432128 175.55455149 109.3125 184.125 C109.65466553 184.84469971 109.99683105 185.56439941 110.34936523 186.3059082 C112.3297539 190.49892511 114.17483411 194.73652656 116 199 C117.20553069 201.65705992 118.44318289 204.29841318 119.6875 206.9375 C120.20425293 208.03578125 120.20425293 208.03578125 120.73144531 209.15625 C123.49246271 214.99368659 126.3685566 220.76846312 129.27563477 226.53417969 C131.30289229 230.56753023 133.22954855 234.62017512 135.0234375 238.76171875 C137.25747358 243.88212945 139.64323405 248.93520657 142 254 C142.45681152 254.98347412 142.45681152 254.98347412 142.92285156 255.98681641 C143.90415545 258.09666967 144.88912959 260.20477706 145.875 262.3125 C146.16600586 262.93833984 146.45701172 263.56417969 146.75683594 264.20898438 C148.99542113 268.97989505 151.34610725 273.69113585 153.71484375 278.3984375 C157.78903708 286.50780241 161.68761393 294.69492712 165.55374146 302.90512085 C167.51345804 307.06630743 169.47934276 311.22457742 171.4453125 315.3828125 C171.83511795 316.2074852 172.2249234 317.0321579 172.62654114 317.88182068 C176.07260418 325.16623431 179.55853852 332.43076567 183.0625 339.6875 C186.76878294 347.36615503 190.46820956 355.04762462 194.125 362.75 C194.47957275 363.49467529 194.83414551 364.23935059 195.19946289 365.0065918 C196.70658635 368.18895373 198.1597117 371.37400841 199.54296875 374.61328125 C200.98046582 377.95459482 202.54648047 381.19192803 204.1875 384.4375 C204.71730469 385.48808594 205.24710938 386.53867188 205.79296875 387.62109375 C206.19128906 388.40613281 206.58960938 389.19117188 207 390 C210.26739766 386.16390971 212.15167681 381.72084779 214.25 377.1875 C214.6433252 376.34815918 215.03665039 375.50881836 215.44189453 374.64404297 C217.31999709 370.63169841 219.18047957 366.61125835 221.0390625 362.58984375 C221.35069336 361.91735596 221.66232422 361.24486816 221.98339844 360.55200195 C222.82325055 358.73684513 223.65789154 356.91927978 224.4921875 355.1015625 C226 352 226 352 227.4453125 349.7109375 C228.7982184 347.35185033 229.75106744 345.17931202 230.72265625 342.65234375 C233.53874104 335.42684545 237.02593563 328.51949711 240.4375 321.5625 C241.7506753 318.87726406 243.0617537 316.1910143 244.37109375 313.50390625 C244.6871759 312.85545746 245.00325806 312.20700867 245.32891846 311.53890991 C247.59940519 306.86475895 249.78086793 302.15557045 251.91137695 297.41577148 C253.52272703 293.84001257 255.19727746 290.2949786 256.875 286.75 C259.32199333 281.57245617 261.75155652 276.3872149 264.16796875 271.1953125 C268.53922411 261.81392428 272.99043747 252.47062139 277.4375 243.125 C283.31881728 230.76263741 289.17914608 218.3909515 295 206 C295.76144574 204.38268394 296.5231017 202.76546679 297.28515625 201.1484375 C297.58873047 200.50390625 297.89230469 199.859375 298.20507812 199.1953125 C298.78041373 197.97387107 299.35593696 196.752518 299.93164062 195.53125 C301.74288197 191.68477584 303.54414111 187.83376508 305.33958435 183.97988892 C310.05297916 173.86483732 314.82207789 163.77636591 319.59326172 153.68847656 C320.67706075 151.39662746 321.76042557 149.10457347 322.84375 146.8125 C323.1941333 146.07193359 323.5445166 145.33136719 323.90551758 144.56835938 C325.6127772 140.95570094 327.30970609 137.33883081 328.984375 133.7109375 C329.29846313 133.03184326 329.61255127 132.35274902 329.93615723 131.65307617 C330.78469686 129.81539155 331.62978292 127.97611336 332.47460938 126.13671875 C333.8481541 123.31224649 335.36660389 120.67867772 337 118 C337.71432378 116.37653687 338.42612804 114.7516912 339.10546875 113.11328125 C340.97357167 108.69999007 343.00897703 104.35872595 345 100 C351.27 100 357.54 100 364 100 C368.29023055 107.8143485 372.34267855 115.56690842 375.875 123.75 C378.58414568 130.00438977 381.52462909 136.05825993 384.75 142.0625 C389.78064536 151.4392563 394.39756621 160.98855692 398.94140625 170.609375 C400.97867316 174.91151436 403.09313141 179.16127245 405.27734375 183.390625 C405.79756104 184.41768555 406.31777832 185.44474609 406.85375977 186.50292969 C407.84023239 188.44642799 408.84617113 190.38021485 409.87475586 192.30175781 C412.52635203 197.59429144 413.64247181 201.13253875 411.86669922 206.88818359 C410.46820926 210.2957718 408.80499755 213.42881139 406.875 216.5625 C406.50246094 217.18962891 406.12992188 217.81675781 405.74609375 218.46289062 C404.84168327 219.98183644 403.92243224 221.49193055 403 223 C402.34 223 401.68 223 401 223 C400.59910156 222.06542969 400.19820312 221.13085938 399.78515625 220.16796875 C393.59238561 205.82067332 387.08632796 191.65621574 379.60009766 177.93383789 C377.67649348 174.37668135 376.11647726 170.90311389 374.8359375 167.078125 C373.64803927 164.1250322 372.09837074 161.41160092 370.5625 158.625 C368.05062079 154.05747017 365.94442713 149.56854569 364.109375 144.69921875 C361.75677584 138.97511306 358.82305782 133.50337677 356 128 C354.0402908 130.51087741 352.39837494 132.95165793 351 135.8125 C350.690625 136.43769531 350.38125 137.06289063 350.0625 137.70703125 C349.25258108 139.45490775 348.48705325 141.22342579 347.7421875 143 C345.40496021 148.48927447 342.73185678 153.82282659 340.125 159.1875 C334.76934147 170.25104291 329.54038577 181.36749155 324.40283203 192.53393555 C321.72631169 198.3390507 318.97441845 204.08734699 316.08789062 209.79077148 C315.12959157 211.73683255 314.24637479 213.68832442 313.40625 215.6875 C311.40238652 220.40771175 309.043712 224.93165361 306.71875 229.5 C305.35250671 232.28216815 304.11227619 235.07331962 302.91113281 237.92822266 C300.31347637 243.83489805 297.3859226 249.60119368 294.55859375 255.40039062 C292.09870195 260.48437356 289.73334032 265.56352437 287.6171875 270.80078125 C284.79475336 277.69830607 281.41294537 284.28210787 278.04510498 290.92376709 C276.3432218 294.30477276 274.68740166 297.70780578 273.03515625 301.11328125 C272.54807945 302.11681641 272.54807945 302.11681641 272.05116272 303.140625 C271.05392233 305.19742463 270.05805382 307.25488355 269.0625 309.3125 C268.71716217 310.02557312 268.37182434 310.73864624 268.01602173 311.47332764 C263.88132773 320.01183279 259.75567872 328.55455149 255.6875 337.125 C255.34533447 337.84469971 255.00316895 338.56439941 254.65063477 339.3059082 C252.97490319 342.85388388 251.39544421 346.42556976 249.86450195 350.0390625 C247.94502541 354.39298389 245.82221345 358.65483126 243.75 362.9375 C240.48198222 369.72186845 237.27414127 376.51356825 234.3125 383.4375 C231.91185184 389.02734061 229.31681502 394.48878571 226.55981445 399.91186523 C222.60109247 407.72312939 218.8081848 415.61462225 215 423.5 C214.65477295 424.21455353 214.3095459 424.92910706 213.95385742 425.66531372 C211.96784373 429.77620376 209.98328095 433.88779091 208 438 C202.29883466 430.5614412 198.25906262 422.06674711 194.9609375 413.328125 C193.66443632 410.18700831 191.98005827 407.3301709 190.28149414 404.39282227 C189.06413221 402.11974849 188.11859855 399.88977383 187.20703125 397.48046875 C184.83410073 391.44199965 182.02836805 385.64223558 179.1875 379.8125 C175.93844804 373.11581943 172.71294841 366.4111782 169.578125 359.66015625 C166.29870668 352.6020261 162.92322638 345.59313143 159.51971436 338.59414673 C152.83181427 324.83604073 146.23938163 311.04114282 139.84375 297.14453125 C138.97556655 295.26251241 138.10702726 293.38065825 137.23834229 291.49887085 C136.40308149 289.68595044 135.57231129 287.87096319 134.74169922 286.0559082 C131.81090454 279.70166151 128.73506543 273.50419495 125.28369141 267.41552734 C123.99565161 264.99181762 122.97181562 262.56497349 122 260 C120.25928779 255.41612453 118.02759365 251.2647804 115.5625 247.03125 C114.29503866 244.57237499 113.28241181 242.2246808 112.29296875 239.65234375 C109.68728985 233.00409425 106.51611313 226.63364066 103.37426758 220.22781372 C101.9308827 217.28424947 100.49590429 214.33661486 99.06051636 211.3891449 C98.3495513 209.92930407 97.63823112 208.46963614 96.92654419 207.01014709 C91.03770385 194.93180163 85.33017206 182.80202272 79.94946289 170.48901367 C77.53177064 165.02708755 74.81721738 159.78999594 71.93823242 154.55957031 C69.10609493 149.35531667 66.7119325 144.0077639 64.43334961 138.54052734 C63.09047998 135.34857545 61.66158028 132.32088001 59.9140625 129.328125 C58.35872286 126.62373853 57.18031346 124.16467528 56.125 121.25 C54.33033226 116.58669013 52.07459058 112.34549251 49.5625 108.03125 C48.26955972 105.52294586 47.225441 103.10359713 46.20703125 100.48046875 C43.70446221 94.09398859 40.69606936 87.97290393 37.6875 81.8125 C34.26849098 74.78386105 30.86801823 67.75011927 27.578125 60.66015625 C24.16525712 53.30972619 20.6383021 46.01739571 17.08862305 38.73223877 C15.33744225 35.13602671 13.5926995 31.53669326 11.84765625 27.9375 C11.51045563 27.24202057 11.173255 26.54654114 10.82583618 25.82998657 C10.17948841 24.49672109 9.53321443 23.16341984 8.88702393 21.83007812 C8.08763971 20.18081532 7.28774759 18.53179871 6.48779297 16.8828125 C5.31864678 14.46660622 4.15717003 12.04695824 3 9.625 C2.68039307 8.96709473 2.36078613 8.30918945 2.03149414 7.63134766 C0.72064158 4.86706789 0 3.10706196 0 0 Z " fill="#F9F9F9" transform="translate(618,741)"/>
<path d="M0 0 C44.88 0 89.76 0 136 0 C134.7957749 3.01056274 133.65516417 5.81395044 132.21582031 8.68188477 C131.87496399 9.36352188 131.53410767 10.045159 131.18292236 10.74745178 C130.63604767 11.83345924 130.63604767 11.83345924 130.078125 12.94140625 C129.50442169 14.08669044 129.50442169 14.08669044 128.91912842 15.25511169 C127.69796907 17.69185764 126.47404426 20.12720216 125.25 22.5625 C124.44252239 24.17243279 123.63522899 25.78245799 122.828125 27.39257812 C116.4435548 40.12566134 116.4435548 40.12566134 114.18945312 44.58154297 C113.40731445 46.13252686 113.40731445 46.13252686 112.609375 47.71484375 C112.17077148 48.58101318 111.73216797 49.44718262 111.28027344 50.33959961 C110.31938696 52.33631584 109.41903017 54.3623449 108.54980469 56.40063477 C107.01536723 59.96431016 105.3426112 63.41198489 103.59375 66.875 C102.9309452 68.19195357 102.26818661 69.50893041 101.60546875 70.82592773 C101.08992432 71.84769608 101.08992432 71.84769608 100.56396484 72.8901062 C92.75705512 88.37158618 85.13556901 103.93385473 77.83203125 119.66015625 C74.38986079 127.06397732 70.82578022 134.34920038 66.93994141 141.53125 C64.61958055 145.82064543 62.37199983 150.13978755 60.1875 154.5 C59.64480469 155.5828125 59.10210938 156.665625 58.54296875 157.78125 C57.54478579 159.86353547 56.59410884 161.96955676 55.70239258 164.09960938 C53.73745501 168.70606418 51.47487212 173.15584906 49.21875 177.625 C48.53661438 178.98359131 48.53661438 178.98359131 47.84069824 180.36962891 C45.9080623 184.2186504 43.97065829 188.06526605 42.03369141 191.91210938 C40.61455471 194.73224379 39.19785195 197.55359171 37.78125 200.375 C37.34679565 201.23561035 36.91234131 202.0962207 36.46472168 202.98291016 C34.14722948 207.59924729 32.03199539 212.24936046 30 217 C28.58981118 219.93068395 27.11994662 222.83018558 25.6484375 225.73046875 C24.78763975 227.43939235 23.92696698 229.14837891 23.06640625 230.85742188 C21.73232026 233.5011041 20.39696599 236.14412634 19.05908203 238.78588867 C13.82858216 249.12263224 8.75878702 259.49259072 4.11166382 270.1068573 C1.63935078 275.72386993 -1.09888305 281.15533359 -4 286.5625 C-7.37713148 292.86656636 -10.59299999 299.2096287 -13.625 305.6875 C-16.23376634 311.25990575 -18.86146128 316.81497122 -21.625 322.3125 C-21.92962158 322.91852051 -22.23424316 323.52454102 -22.5480957 324.14892578 C-23.25247523 325.54808044 -23.95735338 326.94698414 -24.66259766 328.34570312 C-27.37785735 333.73458655 -30.08521529 339.1274175 -32.78900146 344.52206421 C-33.79404793 346.52571415 -34.80152744 348.528128 -35.80908203 350.53051758 C-36.44185831 351.79241702 -37.074513 353.05437745 -37.70703125 354.31640625 C-38.2688208 355.43474854 -38.83061035 356.55309082 -39.40942383 357.70532227 C-40.46490667 359.89162172 -41.46879747 362.10362738 -42.41796875 364.33813477 C-44.31893393 368.73822377 -46.44539914 372.99610228 -48.60546875 377.2734375 C-49.04836746 378.1554483 -49.49126617 379.03745911 -49.94758606 379.94619751 C-51.82502337 383.68491769 -53.70712674 387.4212821 -55.58911133 391.15771484 C-60.95992411 401.82761632 -66.25651259 412.51735032 -71.28833008 423.35180664 C-73.74495015 428.62544205 -76.37199395 433.80968805 -79 439 C-86.26 439 -93.52 439 -101 439 C-99.42030992 434.26092977 -97.63977065 430.05927237 -95.375 425.65625 C-94.65277181 424.23221377 -93.9314443 422.80772046 -93.2109375 421.3828125 C-92.65937988 420.29371582 -92.65937988 420.29371582 -92.09667969 419.18261719 C-90.36301691 415.73227319 -88.67931757 412.25829323 -87 408.78125 C-86.6704834 408.0998999 -86.3409668 407.4185498 -86.00146484 406.71655273 C-85.00012051 404.64478058 -83.99986985 402.57248413 -83 400.5 C-78.93500964 392.07427536 -74.85404466 383.65733822 -70.6875 375.28125 C-70.36201172 374.62378784 -70.03652344 373.96632568 -69.70117188 373.28894043 C-67.9394492 369.76206136 -66.04894514 366.36658262 -64 363 C-63.40274602 361.57658854 -62.84064747 360.13797329 -62.3125 358.6875 C-59.73188263 352.09151903 -56.49280289 345.84625229 -53.28808594 339.53955078 C-50.73879869 334.51345412 -48.21241933 329.47587185 -45.6875 324.4375 C-45.1311084 323.32785889 -44.5747168 322.21821777 -44.00146484 321.07495117 C-40.31233691 313.69296246 -36.72031548 306.27038973 -33.1875 298.8125 C-30.2186265 292.54511333 -27.19410041 286.33971948 -23.875 280.25 C-19.66663998 272.52863904 -15.9574265 264.59161418 -12.23144531 256.62890625 C-6.19447615 243.74110213 -0.11462645 230.90117695 6.65209961 218.37695312 C8.93127674 214.13904049 10.98967795 209.86615846 12.91235352 205.45556641 C15.08665982 200.54666118 17.42856246 195.71559307 19.75 190.875 C20.28439697 189.75971924 20.81879395 188.64443848 21.36938477 187.49536133 C24.10573585 181.81839225 26.90138399 176.20947645 29.9375 170.6875 C33.60693333 163.951415 36.80356282 157.03396935 40 150.0625 C46.71553467 135.42372962 53.89444536 121.03519323 61.15307617 106.65966797 C66.01514265 97.02848464 70.81594353 87.37458489 75.4375 77.625 C78.81606777 70.52782499 82.23840158 63.4604039 85.78735352 56.44702148 C88.01204123 52.02867771 90.17290129 47.58117637 92.3125 43.12109375 C92.60488556 42.51180023 92.89727112 41.90250671 93.19851685 41.27474976 C94.67228175 38.20149377 96.14251175 35.12659317 97.60888672 32.04980469 C98.41737061 30.36032715 98.41737061 30.36032715 99.2421875 28.63671875 C99.7254248 27.62311279 100.20866211 26.60950684 100.70654297 25.56518555 C102 23 102 23 104 20 C73.97 20.33 43.94 20.66 13 21 C7.07719119 32.81562597 7.07719119 32.81562597 2 45 C0.86512291 47.37949466 -0.29051089 49.72260376 -1.5 52.0625 C-4.84383696 58.64400788 -8.07434424 65.27326303 -11.25 71.9375 C-11.7150293 72.91275635 -12.18005859 73.8880127 -12.65917969 74.89282227 C-13.62198386 76.91264647 -14.58454581 78.93258616 -15.546875 80.95263672 C-17.94036483 85.97204869 -20.34433054 90.98641631 -22.75 96 C-23.48512817 97.53309814 -23.48512817 97.53309814 -24.23510742 99.09716797 C-27.04397653 104.94849198 -29.86774559 110.79230124 -32.70703125 116.62890625 C-33.99268282 119.27319703 -35.27784983 121.91772257 -36.5625 124.5625 C-36.88094879 125.21807892 -37.19939758 125.87365784 -37.52749634 126.54910278 C-42.2030961 136.18462229 -46.7640692 145.86460657 -51.14868164 155.63696289 C-53.5601307 160.98228398 -56.10333839 166.24794636 -58.7421875 171.484375 C-62.9553135 179.8462539 -66.97973377 188.29239007 -70.98016357 196.75769043 C-73.06264335 201.16436544 -75.15039527 205.56854071 -77.23828125 209.97265625 C-77.65021729 210.84179657 -78.06215332 211.71093689 -78.48657227 212.60641479 C-81.91638175 219.83705837 -85.3881126 227.0466962 -88.875 234.25 C-93.02812759 242.83481074 -97.07598209 251.46167702 -101.0625 260.125 C-107.41334868 273.91294843 -114.07017379 287.5472885 -120.75805664 301.17431641 C-124.85778508 309.53122615 -128.93010276 317.89947175 -132.921875 326.30859375 C-133.28839172 327.07921646 -133.65490845 327.84983917 -134.03253174 328.64381409 C-135.62720706 332.01601075 -137.18705155 335.39394617 -138.64746094 338.82666016 C-140.12029852 342.28224552 -141.78579922 345.59556032 -143.5 348.9375 C-146.00728462 353.86753195 -148.15935836 358.78484868 -150 364 C-151 365 -151 365 -152.94946289 365.11352539 C-153.7821167 365.10828857 -154.61477051 365.10305176 -155.47265625 365.09765625 C-156.37177734 365.09443359 -157.27089844 365.09121094 -158.19726562 365.08789062 C-159.14279297 365.07951172 -160.08832031 365.07113281 -161.0625 365.0625 C-162.01189453 365.05798828 -162.96128906 365.05347656 -163.93945312 365.04882812 C-166.29303065 365.0370011 -168.64648477 365.02052025 -171 365 C-171.4846875 364.01902344 -171.969375 363.03804687 -172.46875 362.02734375 C-175.93550851 355.03969955 -179.45889936 348.10186251 -183.1875 341.25 C-185.97142234 336.10418259 -188.36136518 330.91251148 -190.53125 325.48046875 C-193.6734097 318.03455309 -197.29998662 310.80008003 -200.79833984 303.51660156 C-202.45612453 300.0447518 -204.07355479 296.55488001 -205.6875 293.0625 C-209.47345449 284.91777522 -213.30804634 276.71091891 -217.765625 268.91015625 C-219.18638059 265.56059007 -219.18808268 264.38684202 -218 261 C-217.12592706 259.17654937 -216.18341335 257.38486713 -215.1875 255.625 C-214.65253906 254.67238281 -214.11757813 253.71976563 -213.56640625 252.73828125 C-213.04949219 251.83464844 -212.53257812 250.93101562 -212 250 C-211.57589844 249.25105469 -211.15179687 248.50210938 -210.71484375 247.73046875 C-209.81665526 246.14978577 -208.90952906 244.57418491 -208 243 C-205.37211661 246.23701177 -203.61316119 249.60931969 -201.8125 253.36328125 C-201.51392593 253.98267578 -201.21535187 254.60207031 -200.9077301 255.24023438 C-199.93427968 257.26233173 -198.96706387 259.28734155 -198 261.3125 C-197.319282 262.73023138 -196.63820743 264.1477916 -195.95678711 265.56518555 C-194.26926143 269.07780244 -192.58670806 272.59277519 -190.90545654 276.10839844 C-189.6504043 278.73034513 -188.38976363 281.34959087 -187.12890625 283.96875 C-182.98847979 292.5829193 -178.89324854 301.21749954 -174.8359375 309.87109375 C-174.29189522 311.03062309 -174.29189522 311.03062309 -173.73686218 312.21357727 C-171.9229038 316.08005582 -170.11156488 319.94772009 -168.30493164 323.81762695 C-167.63957481 325.23783473 -166.97413281 326.65800261 -166.30859375 328.078125 C-166.00388153 328.73328598 -165.69916931 329.38844696 -165.38522339 330.0634613 C-164.06842153 332.86760135 -162.72325366 335.41511951 -161 338 C-157.34141513 330.77772151 -153.74644138 323.55085098 -150.4375 316.16015625 C-148.16067298 311.15484902 -145.78728729 306.19561163 -143.42700195 301.22924805 C-141.19889466 296.53827908 -138.99264182 291.83852182 -136.8125 287.125 C-133.04613941 279.03170422 -129.15032221 271.00111554 -125.26379395 262.96508789 C-121.34433743 254.86076529 -117.43304418 246.75283944 -113.5625 238.625 C-112.96115234 237.36260498 -112.96115234 237.36260498 -112.34765625 236.07470703 C-110.23099956 231.62105606 -108.14277691 227.15549375 -106.07714844 222.67797852 C-103.63800726 217.39205704 -101.08794434 212.2697727 -98.18310547 207.22680664 C-97.03094527 205.05824428 -96.14588784 202.92150961 -95.28125 200.625 C-92.61407585 193.84922152 -89.38635019 187.34779452 -86.1875 180.8125 C-84.99176304 178.36151564 -83.79809683 175.90952973 -82.60546875 173.45703125 C-82.3063559 172.84252106 -82.00724304 172.22801086 -81.69906616 171.59487915 C-79.61707985 167.30538603 -77.58765831 162.99362002 -75.58203125 158.66796875 C-71.31534169 149.47166908 -66.85513528 140.37060976 -62.40673828 131.26123047 C-58.36632569 122.98317958 -54.364274 114.69229653 -50.48721313 106.33634949 C-47.68224197 100.29621327 -44.78128773 94.30434008 -41.875 88.3125 C-37.21975666 78.68703776 -32.66740504 69.02059759 -28.1875 59.3125 C-24.90448131 52.20001501 -21.61117957 45.10910342 -18.0625 38.125 C-11.77358642 25.54717284 -5.94680075 12.74314447 0 0 Z " fill="#F9F9F9" transform="translate(1167,740)"/>
</svg>
